<svg width="165" height="39" viewBox="0 0 165 39" fill="none" xmlns="http://www.w3.org/2000/svg">
<g clip-path="url(#clip0_795_905)">
<path d="M164.671 8.45457C162.282 7.06366 158.686 6.40911 156.132 6.40911C149.379 6.40911 146.249 9.40911 146.249 13.6909C146.249 17.3728 149.049 19.6091 152.097 20.7818C153.607 21.3273 155.281 21.9 156.544 22.2546C158.576 22.8273 159.372 23.7818 159.372 25.1727C159.372 26.9182 158.137 27.9546 154.924 27.9546C152.728 27.9546 149.845 27.0818 147.786 25.9091L145.865 30.1637C148.5 31.6637 152.042 32.4546 154.979 32.4546C161.294 32.4546 164.973 29.3182 164.973 24.9818C164.973 20.8637 162.776 19.4182 160.306 18.3546C159.345 17.9727 157.56 17.4 156.627 17.1273C153.469 16.2546 151.767 15.4637 151.767 13.3909C151.767 11.8637 152.783 10.6637 156.242 10.6637C158.741 10.6637 161.184 11.5091 162.859 12.4637L164.671 8.45457ZM138.726 6.76365V27.3H138.095L130.792 6.76365H120.909V31.9909H126.262V11.1273H126.949L134.169 31.9909H144.053V6.76365H138.726ZM119.124 9.73639C116.928 7.30911 113.331 6.38184 110.092 6.38184C102.597 6.38184 98.0393 10.8273 98.0393 19.3909C98.0393 27.5727 101.553 32.4 110.037 32.4C113.194 32.4 116.516 31.6637 118.767 30.3546L117.504 26.1546C115.692 27.0546 112.974 27.6546 110.421 27.6546C105.095 27.6546 103.695 24.2727 103.695 19.3364C103.695 13.5818 106.276 10.8273 110.311 10.8273C112.7 10.8273 114.704 11.8637 116.049 13.2546L119.124 9.73639Z" fill="#636466"/>
<path d="M19.7397 38.7818C30.5292 38.7818 39.2597 30.1091 39.2597 19.3909C39.2597 8.7 30.5292 0 19.7397 0C8.97763 0 0.219727 8.67273 0.219727 19.3909C0.247181 30.1091 8.97763 38.7818 19.7397 38.7818Z" fill="#C00C3F"/>
<path d="M18.9709 10.8818V27.8727H24.4343V26.3727H20.5358V10.8818H18.9709Z" fill="white"/>
<path d="M13.535 15.5182C14.8254 15.5182 15.8686 14.4818 15.8686 13.2C15.8686 11.9182 14.8254 10.8818 13.535 10.8818C12.2447 10.8818 11.2014 11.9182 11.2014 13.2C11.2014 14.4818 12.2447 15.5182 13.535 15.5182Z" fill="white"/>
<path d="M20.5357 3.19134C20.3436 3.19134 19.9592 3.16406 19.7396 3.16406C10.7346 3.16406 3.4043 10.4459 3.4043 19.3913C3.4043 23.7277 5.10646 27.7913 8.18133 30.8732C11.2562 33.9277 15.3743 35.6186 19.7396 35.6186C24.1048 35.6186 28.1955 33.9277 31.2978 30.8732C34.3727 27.8186 36.0748 23.7277 36.0748 19.3913V18.655H35.4159H24.4342V20.155H34.5374V20.3732C34.0158 28.0095 27.5915 34.0913 19.767 34.0913C15.8136 34.0913 12.1073 32.5641 9.30696 29.7822C6.47917 27.0277 4.94173 23.3186 4.94173 19.3913C4.94173 15.4641 6.47917 11.7822 9.2795 9.00042C12.0798 6.21861 15.7862 4.69134 19.7396 4.69134C19.9043 4.69134 20.3436 4.69133 20.5357 4.7186V3.19134Z" fill="white"/>
<path d="M79.0408 22.391H83.8178V26.8092C82.9393 27.1364 81.2097 27.4637 79.5899 27.4637C74.3187 27.4637 72.5616 24.791 72.5616 19.391C72.5616 14.2365 74.2363 11.1819 79.5075 11.1819C82.4451 11.1819 84.1198 12.1092 85.4925 13.8546L89.144 10.5274C86.9202 7.36373 83.0217 6.40918 79.3702 6.40918C71.1614 6.40918 66.8236 10.8546 66.8236 19.3637C66.8236 27.8183 70.7221 32.4001 79.3153 32.4001C83.2687 32.4001 87.1123 31.391 89.1989 29.9455V17.7001H79.0133V22.391H79.0408ZM53.9751 6.76372H48.0999V31.991H66.1373V27.0819H53.9751V6.76372Z" fill="#636466"/>
</g>
<defs>
<clipPath id="clip0_795_905">
<rect width="165" height="39" fill="white"/>
</clipPath>
</defs>
</svg>
