<svg width="65" height="66" viewBox="0 0 65 66" fill="none" xmlns="http://www.w3.org/2000/svg">
<circle cx="32.5" cy="33.4961" r="32.5" fill="#FABB06"/>
<g clip-path="url(#clip0_1699_1298)">
<path d="M37 21.9961H29L26.0375 17.5523C25.5938 16.8836 26.0687 15.9961 26.8687 15.9961H39.1313C39.9312 15.9961 40.4062 16.8836 39.9625 17.5523L37 21.9961ZM29 23.9961H37C37.2375 24.1523 37.5063 24.3273 37.8125 24.5211C41.3563 26.7898 49 31.6773 49 41.9961C49 45.3086 46.3125 47.9961 43 47.9961H23C19.6875 47.9961 17 45.3086 17 41.9961C17 31.6773 24.6438 26.7898 28.1875 24.5211C28.4875 24.3273 28.7625 24.1523 29 23.9961ZM34.25 29.4961C34.25 28.8086 33.6875 28.2461 33 28.2461C32.3125 28.2461 31.75 28.8086 31.75 29.4961V30.3711C31.275 30.4773 30.8 30.6461 30.3625 30.9023C29.4938 31.4211 28.7437 32.3273 28.75 33.6461C28.7563 34.9148 29.5 35.7148 30.2937 36.1898C30.9812 36.6023 31.8375 36.8648 32.5188 37.0648L32.625 37.0961C33.4125 37.3336 33.9875 37.5211 34.375 37.7648C34.6938 37.9648 34.7375 38.1023 34.7437 38.2773C34.75 38.5898 34.6313 38.7773 34.375 38.9336C34.0625 39.1273 33.5688 39.2461 33.0375 39.2273C32.3438 39.2023 31.6938 38.9836 30.8438 38.6961C30.7 38.6461 30.55 38.5961 30.3938 38.5461C29.7375 38.3273 29.0312 38.6836 28.8125 39.3336C28.5938 39.9836 28.95 40.6961 29.6 40.9148C29.7188 40.9523 29.85 40.9961 29.9812 41.0461C30.5 41.2273 31.1 41.4336 31.7437 41.5711V42.4961C31.7437 43.1836 32.3062 43.7461 32.9937 43.7461C33.6812 43.7461 34.2437 43.1836 34.2437 42.4961V41.6336C34.7437 41.5273 35.2437 41.3523 35.6938 41.0711C36.5875 40.5148 37.2625 39.5648 37.2437 38.2586C37.225 36.9898 36.5125 36.1711 35.7062 35.6586C34.9875 35.2086 34.0875 34.9336 33.3875 34.7211L33.3438 34.7086C32.5437 34.4648 31.975 34.2898 31.575 34.0523C31.25 33.8586 31.2437 33.7461 31.2437 33.6336C31.2437 33.4023 31.3313 33.2273 31.6313 33.0523C31.9688 32.8523 32.4813 32.7336 32.975 32.7398C33.575 32.7461 34.2375 32.8773 34.925 33.0648C35.5938 33.2398 36.275 32.8461 36.4562 32.1773C36.6375 31.5086 36.2375 30.8273 35.5688 30.6461C35.1625 30.5398 34.7125 30.4336 34.25 30.3523V29.4961Z" fill="white"/>
</g>
<defs>
<clipPath id="clip0_1699_1298">
<rect width="32" height="32" fill="white" transform="translate(17 15.9961)"/>
</clipPath>
</defs>
</svg>
