<svg width="52" height="72" viewBox="0 0 52 72" fill="none" xmlns="http://www.w3.org/2000/svg">
<g id="menu_book_FILL0_wght100_GRAD0_opsz48 1">
<g id="icon01">
<rect id="Rectangle 115" x="12" y="12" width="36" height="51" fill="white" stroke="#555555" stroke-width="2"/>
<rect id="Rectangle 117" x="8" y="8" width="36" height="51" fill="white" stroke="#555555" stroke-width="2"/>
<rect id="Rectangle 116" x="4" y="4" width="36" height="51" fill="white" stroke="#555555" stroke-width="2"/>
<path id="Subtract" fill-rule="evenodd" clip-rule="evenodd" d="M11 2H12C12.5523 2 13 2.44772 13 3H15C15 1.34315 13.6569 0 12 0H11C9.34315 0 8 1.34315 8 3V13C8 14.6569 9.34315 16 11 16H12C13.6569 16 15 14.6569 15 13V7.5V7H13V7.5V13C13 13.5523 12.5523 14 12 14H11C10.4477 14 10 13.5523 10 13V3C10 2.44772 10.4477 2 11 2Z" fill="#555555"/>
<line id="Line 92" x1="14" y1="24" x2="30" y2="24" stroke="#58D1F6" stroke-width="2"/>
<line id="Line 93" x1="14" y1="29" x2="30" y2="29" stroke="#58D1F6" stroke-width="2"/>
<line id="Line 94" x1="14" y1="34" x2="30" y2="34" stroke="#58D1F6" stroke-width="2"/>
<line id="Line 95" x1="17" y1="39" x2="27" y2="39" stroke="#58D1F6" stroke-width="2"/>
</g>
</g>
</svg>
